#!OML:ASF C:\ViconDB\ViconDB\414\Spring2016\041811\Spring2016.ASF
:FULLY-SPECIFIED
:DEGREES
155
root 9.85886 17.9448 -5.11896 -181.276 2.01392 -177.511
lowerback 4.63376 1.75945 1.83201
upperback 2.75503 2.58844 1.52916
thorax 0.242191 1.37646 0.430801
lowerneck -10.9376 -4.03748 -11.2271
upperneck 16.0083 -6.83308 14.5359
head 7.58487 -3.01437 5.98778
rclavicle 1.77415e-014 3.77691e-015
rhumerus -35.2034 -7.61968 -85.3471
rradius 38.7087
rwrist 31.7821
rhand -32.9306 -14.493
rfingers 7.12502
rthumb -6.14724 -44.3838
lclavicle 1.77415e-014 3.77691e-015
lhumerus -40.1357 0.0171886 87.4994
lradius 23.2752
lwrist -35.3891
lhand -27.4836 17.2329
lfingers 7.12502
lthumb -0.887203 47.2108
rfemur -1.56446 -15.3934 23.2694
rtibia 24.1142
rfoot -161.586 17.9787
rtoes -12.79
lfemur -28.0902 7.99788 -11.1271
ltibia 55.5282
lfoot -13.9358 6.8819
ltoes -9.18663
156
root 9.87162 17.948 -5.27283 -181.147 1.95483 -177.466
lowerback 4.4441 1.79236 1.87191
upperback 2.73271 2.62419 1.51393
thorax 0.327646 1.39341 0.398205
lowerneck -10.9153 -4.06862 -11.2078
upperneck 15.9663 -6.82074 14.3363
head 7.55797 -3.01756 5.91605
rclavicle -7.7526e-015 -5.1684e-015
rhumerus -34.7107 -6.69248 -85.4916
rradius 39.1409
rwrist 31.6267
rhand -32.9286 -14.1486
rfingers 7.12502
rthumb -6.14525 -44.0395
lclavicle -7.7526e-015 -5.1684e-015
lhumerus -40.55 -0.227544 87.5558
lradius 23.4531
lwrist -35.497
lhand -27.3889 16.9376
lfingers 7.12502
lthumb -0.795708 46.9158
rfemur -0.51744 -15.4334 23.2152
rtibia 23.0908
rfoot -161.604 18.1033
rtoes -12.6009
lfemur -28.6459 7.41452 -11.3358
ltibia 53.3637
lfoot -14.5087 7.30857
ltoes -9.35487
157
root 9.88164 17.9457 -5.42501 -181.061 1.81011 -177.442
lowerback 4.34301 1.80162 1.89846
upperback 2.70825 2.63058 1.46498
thorax 0.362408 1.39551 0.336336
lowerneck -10.8223 -4.06762 -11.1805
upperneck 15.8282 -6.79786 14.294
head 7.49104 -3.00956 5.89732
rclavicle 4.94477e-015 -2.38542e-014
rhumerus -34.2495 -5.84195 -85.791
rradius 39.5619
rwrist 31.1421
rhand -33.2622 -14.1631
rfingers 7.12502
rthumb -6.46733 -44.0444
lclavicle 4.94477e-015 -2.38542e-014
lhumerus -40.8934 -0.146933 87.3786
lradius 23.5147
lwrist -36.1211
lhand -27.323 16.5023
lfingers 7.12502
lthumb -0.732088 46.4808
rfemur 0.623041 -15.3736 23.1665
rtibia 21.9495
rfoot -161.701 18.0145
rtoes -12.4743
lfemur -29.1434 6.78631 -11.544
ltibia 51.1401
lfoot -15.0005 7.60112
ltoes -8.48136
158
root 9.89225 17.943 -5.57877 -180.958 1.70652 -177.341
lowerback 4.19563 1.85331 1.97769
upperback 2.70179 2.69728 1.49585
thorax 0.440643 1.42974 0.326952
lowerneck -10.6451 -4.0963 -11.3868
upperneck 15.5633 -6.79162 14.4072
head 7.38405 -3.01379 5.9698
rclavicle -2.85008e-014 -2.10712e-014
rhumerus -33.7819 -5.09486 -85.8237
rradius 40.0887
rwrist 30.7793
rhand -33.0573 -14.3244
rfingers 7.12502
rthumb -6.26957 -44.2117
lclavicle -2.85008e-014 -2.10712e-014
lhumerus -41.2105 -0.42022 87.5595
lradius 23.7588
lwrist -35.6803
lhand -27.1556 16.0288
lfingers 7.12502
lthumb -0.570372 46.0078
rfemur 1.863 -15.3988 23.1898
rtibia 20.615
rfoot -161.674 17.9335
rtoes -12.2669
lfemur -29.6046 6.28255 -11.6236
ltibia 48.8524
lfoot -15.0472 7.78429
ltoes -8.63924
159
root 9.90182 17.9436 -5.73287 -180.835 1.56298 -177.297
lowerback 4.079 1.87831 2.02142
upperback 2.65262 2.72252 1.41986
thorax 0.461175 1.44038 0.227332
lowerneck -10.597 -4.1247 -11.1901
upperneck 15.5328 -6.80729 14.1475
head 7.3522 -3.0275 5.84399
rclavicle -2.08972e-014 -1.78906e-015
rhumerus -33.3853 -4.35426 -85.9832
rradius 40.3935
rwrist 30.7855
rhand -32.8737 -14.2674
rfingers 7.12502
rthumb -6.09227 -44.1598
lclavicle -2.08972e-014 -1.78906e-015
lhumerus -41.5739 -0.721967 87.6127
lradius 24.0729
lwrist -34.982
lhand -26.8103 15.7727
lfingers 7.12502
lthumb -0.236871 45.7524
rfemur 3.12472 -15.2894 23.1987
rtibia 19.1806
rfoot -161.63 17.6451
rtoes -12.4101
lfemur -30.0324 5.57045 -11.6904
ltibia 46.551
lfoot -14.8665 7.81797
ltoes -8.06569
160
root 9.91055 17.9459 -5.88785 -180.73 1.43422 -177.176
lowerback 3.9454 1.91721 2.06968
upperback 2.64179 2.76997 1.41614
thorax 0.527565 1.46423 0.200216
lowerneck -10.4206 -4.18426 -11.3651
upperneck 15.2625 -6.88596 14.3894
head 7.25965 -3.06513 5.94572
rclavicle -2.88735e-014 1.78906e-015
rhumerus -32.9475 -3.60124 -86.043
rradius 40.6924
rwrist 30.7393
rhand -33.3269 -14.0828
rfingers 7.12502
rthumb -6.52978 -43.9621
lclavicle -2.88735e-014 1.78906e-015
lhumerus -41.8929 -0.818985 87.6606
lradius 24.3688
lwrist -34.9525
lhand -26.5874 15.6578
lfingers 7.12502
lthumb -0.0215474 45.6375
rfemur 4.50471 -15.3302 23.2469
rtibia 17.5822
rfoot -161.458 17.3856
rtoes -12.9859
lfemur -30.4092 4.86907 -11.6295
ltibia 44.2549
lfoot -14.3768 7.75444
ltoes -7.51514
161
root 9.91743 17.942 -6.04243 -180.633 1.35519 -176.987
lowerback 3.89514 1.9498 2.22122
upperback 2.56632 2.81298 1.38979
thorax 0.48732 1.48482 0.0875709
lowerneck -10.0793 -4.12958 -11.4126
upperneck 14.9275 -6.83811 14.6176
head 7.09388 -3.04628 6.0348
rclavicle -2.18042e-014 -1.41137e-014
rhumerus -32.6203 -3.0743 -86.1394
rradius 40.9779
rwrist 30.5387
rhand -33.3314 -13.8853
rfingers 7.12502
rthumb -6.53414 -43.7645
lclavicle -2.18042e-014 -1.41137e-014
lhumerus -42.4309 -1.30769 87.8062
lradius 24.7563
lwrist -34.8143
lhand -26.5326 15.7864
lfingers 7.12502
lthumb 0.0313283 45.7662
rfemur 5.97907 -15.2339 23.4021
rtibia 15.8065
rfoot -161.328 16.9544
rtoes -13.0631
lfemur -30.7382 4.19651 -11.4046
ltibia 42.0017
lfoot -13.7473 7.51447
ltoes -7.47142
162
root 9.92345 17.9393 -6.19915 -180.596 1.27251 -176.901
lowerback 3.84266 2.01458 2.24614
upperback 2.59508 2.89903 1.3803
thorax 0.549149 1.5294 0.0643687
lowerneck -10.0153 -4.22492 -11.4661
upperneck 14.7047 -6.92214 14.6074
head 7.02576 -3.08844 6.02816
rclavicle -4.05893e-014 -1.38155e-014
rhumerus -32.1989 -2.60495 -86.1605
rradius 41.2868
rwrist 30.3282
rhand -33.3586 -14.2063
rfingers 7.12502
rthumb -6.56037 -44.0847
lclavicle -4.05893e-014 -1.38155e-014
lhumerus -42.652 -1.53599 87.9766
lradius 25.0129
lwrist -34.6034
lhand -26.3336 15.7958
lfingers 7.12502
lthumb 0.223571 45.7754
rfemur 7.6814 -15.2293 23.4153
rtibia 13.7721
rfoot -161.005 16.4898
rtoes -13.3542
lfemur -30.9761 3.42217 -11.2779
ltibia 39.8542
lfoot -13.1601 7.16218
ltoes -7.65514
163
root 9.92957 17.9344 -6.35712 -180.498 1.21322 -176.7
lowerback 3.69162 2.04284 2.3353
upperback 2.64649 2.93667 1.42066
thorax 0.689186 1.55199 0.0629698
lowerneck -9.88088 -4.21477 -11.6037
upperneck 14.3328 -6.86846 14.7884
head 6.88777 -3.06061 6.11471
rclavicle -3.24019e-014 -7.95139e-016
rhumerus -31.709 -2.36691 -86.0328
rradius 41.5128
rwrist 30.3774
rhand -33.449 -13.7116
rfingers 7.12502
rthumb -6.64767 -43.5873
lclavicle -3.24019e-014 -7.95139e-016
lhumerus -42.9021 -1.59909 87.9384
lradius 25.3512
lwrist -34.6085
lhand -26.1086 15.4263
lfingers 7.12502
lthumb 0.440842 45.4056
rfemur 9.49648 -15.1576 23.5721
rtibia 11.4307
rfoot -160.626 15.9175
rtoes -13.3613
lfemur -31.2966 2.71456 -10.9361
ltibia 37.8631
lfoot -12.5922 6.47351
ltoes -7.34868
